<svg width="512" height="512" viewBox="0 0 512 512" fill="none" xmlns="http://www.w3.org/2000/svg">
<rect width="512" height="512" fill="white"/>
<path d="M181.309 186.922L128.115 335.377L127.977 335.756L75.6784 187.301V186.922H24L98.6925 379.683L91.8021 361.905L98.6925 379.683H112.301H157.02L232.643 186.922H181.309Z" fill="#141629"/>
<path d="M512 0H256V512H512V0Z" fill="#141629"/>
<path d="M387.24 312.604C387.195 315.414 387.738 318.203 388.836 320.79C389.934 323.377 391.561 325.706 393.614 327.625C395.61 329.62 397.987 331.194 400.602 332.253C403.218 333.313 406.02 333.836 408.842 333.792H446.257V378.58H408.704C398.973 378.646 389.33 376.747 380.35 372.999C371.708 369.417 363.854 364.173 357.232 357.565C350.645 350.956 345.352 343.174 341.625 334.619C337.739 325.748 335.767 316.157 335.837 306.472V248.626H308V205.802H335.769V136.036H387.24V312.604ZM446.223 205.802V248.626H417.558L393.648 205.837L446.223 205.802Z" fill="white"/>
</svg>
