<svg width="48" height="48" viewBox="0 0 48 48" fill="none" xmlns="http://www.w3.org/2000/svg">
<rect width="48" height="48" fill="white"/>
<path d="M16.9977 17.524L12.0108 31.4416L11.9978 31.4772L7.09485 17.5595V17.524H2.25L9.25243 35.5953L8.60645 33.9287L9.25243 35.5953H10.5282H14.7206L21.8103 17.524H16.9977Z" fill="#141629"/>
<path d="M48 0H24V48H48V0Z" fill="#141629"/>
<path d="M36.3038 29.3067C36.2995 29.5701 36.3505 29.8315 36.4534 30.0741C36.5563 30.3166 36.7089 30.5349 36.9013 30.7149C37.0885 30.9019 37.3113 31.0494 37.5565 31.1487C37.8017 31.2481 38.0644 31.2971 38.3289 31.293H41.8366V35.4919H38.316C37.4038 35.498 36.4997 35.3201 35.6578 34.9687C34.8476 34.6329 34.1113 34.1412 33.4905 33.5217C32.873 32.9021 32.3767 32.1725 32.0274 31.3706C31.6631 30.5389 31.4782 29.6397 31.4848 28.7317V23.3087H28.875V19.294H31.4783V12.7534H36.3038V29.3067ZM41.8334 19.294V23.3087H39.1461L36.9045 19.2972L41.8334 19.294Z" fill="white"/>
</svg>
